#!OML:ASF X:\für Bonn\!DataBase\2005_08_12_Daniel\c3d\Daniel.ASF
:FULLY-SPECIFIED
:DEGREES
137
root 0.363559 8.75764 -3.0023 154.243 -11.8014 -182.513
lowerback 79.972 -10.3617 23.5418
upperback 10.8025 -3.97896 1.02853
thorax -6.24506 -6.16007 -4.91449
lowerneck 6.71828 -8.20834 -5.46016
upperneck 11.1607 -12.3098 0.695637
head 2.85135 -6.55844 1.03064
rclavicle -2.22639e-014 -6.20208e-014
rhumerus 13.4335 -16.333 -66.861
rradius 13.5783
rwrist 34.8541
rhand -35.6075 11.6019
rfingers 7.12502
rthumb -8.7311 -18.1975
lclavicle -2.22639e-014 -6.20208e-014
lhumerus -34.1327 -18.2685 95.3931
lradius 112.973
lwrist -7.25596
lhand -33.3091 -6.77869
lfingers 7.12502
lthumb -6.51265 23.1012
rfemur -38.7993 -60.5879 -38.7449
rtibia 143.045
rfoot -27.7113 55.0935
rtoes -0.564037
lfemur -64.9015 42.7768 -11.6515
ltibia 142.071
lfoot -37.525 -31.681
ltoes 2.6816
138
root 0.364231 8.7317 -3.01877 154.175 -11.8985 -182.51
lowerback 80.1734 -10.4537 23.5616
upperback 10.7139 -3.98294 0.994078
thorax -6.31981 -6.16317 -4.937
lowerneck 6.89853 -8.24622 -5.35621
upperneck 11.1026 -12.3679 0.738461
head 2.79817 -6.58192 1.03769
rclavicle 3.18055e-015 -6.36111e-015
rhumerus 13.1797 -16.4391 -66.8398
rradius 13.5589
rwrist 35.3728
rhand -36.0772 11.9426
rfingers 7.12502
rthumb -9.18432 -17.8374
lclavicle 3.18055e-015 -6.36111e-015
lhumerus -34.3647 -18.3454 95.556
lradius 113.308
lwrist -7.4213
lhand -33.3474 -6.48646
lfingers 7.12502
lthumb -6.5496 23.3923
rfemur -37.648 -61.0066 -40.292
rtibia 143.309
rfoot -28.2727 55.3032
rtoes -0.795406
lfemur -64.9563 42.9777 -11.5927
ltibia 142.328
lfoot -37.5009 -31.6228
ltoes 2.776
139
root 0.363433 8.71618 -3.0333 154.153 -11.9845 -182.513
lowerback 80.3845 -10.557 23.5713
upperback 10.6032 -3.99179 0.952539
thorax -6.42186 -6.16671 -4.95918
lowerneck 7.11646 -8.26797 -5.3243
upperneck 11.0499 -12.4146 0.798114
head 2.74662 -6.60373 1.06349
rclavicle -1.27222e-014 -4.77083e-015
rhumerus 12.9463 -16.4886 -66.805
rradius 13.538
rwrist 35.8809
rhand -36.501 12.1743
rfingers 7.12502
rthumb -9.59326 -17.5872
lclavicle -1.27222e-014 -4.77083e-015
lhumerus -34.5777 -18.3668 95.7662
lradius 113.556
lwrist -7.65756
lhand -33.4947 -6.26363
lfingers 7.12502
lthumb -6.69179 23.6106
rfemur -36.8503 -61.2709 -41.3775
rtibia 143.5
rfoot -28.6399 55.4029
rtoes -0.896689
lfemur -65.1081 42.9009 -11.7181
ltibia 142.509
lfoot -37.3728 -31.45
ltoes 2.69967
140
root 0.361326 8.71382 -3.04732 154.131 -12.0482 -182.519
lowerback 80.6678 -10.6994 23.5987
upperback 10.4576 -4.00137 0.877218
thorax -6.55439 -6.16792 -5.01873
lowerneck 7.3774 -8.29545 -5.26696
upperneck 10.9543 -12.4663 0.865523
head 2.67227 -6.62613 1.09123
rclavicle 2.22639e-014 -1.74931e-014
rhumerus 12.7017 -16.4564 -66.7376
rradius 13.5141
rwrist 36.3349
rhand -36.9949 12.3577
rfingers 7.12502
rthumb -10.0697 -17.3814
lclavicle 2.22639e-014 -1.74931e-014
lhumerus -34.7983 -18.3644 95.9775
lradius 113.794
lwrist -7.80538
lhand -33.5755 -6.195
lfingers 7.12502
lthumb -6.76983 23.6768
rfemur -36.526 -61.278 -41.783
rtibia 143.557
rfoot -28.6806 55.367
rtoes -1.01304
lfemur -65.1119 42.7085 -11.8483
ltibia 142.57
lfoot -37.2251 -31.2489
ltoes 2.87091
141
root 0.358957 8.71916 -3.05989 154.151 -12.1163 -182.494
lowerback 80.9115 -10.8588 23.653
upperback 10.3224 -4.01535 0.799399
thorax -6.6755 -6.16678 -5.0914
lowerneck 7.5862 -8.3208 -5.22192
upperneck 10.8751 -12.5117 0.93284
head 2.61336 -6.64545 1.11787
rclavicle 1.27222e-013 4.77083e-014
rhumerus 12.556 -16.6568 -66.774
rradius 13.4417
rwrist 36.9951
rhand -37.3872 12.4472
rfingers 7.12502
rthumb -10.4482 -17.2732
lclavicle 1.27222e-013 4.77083e-014
lhumerus -34.9538 -18.385 96.1678
lradius 113.961
lwrist -7.89318
lhand -33.7474 -6.18462
lfingers 7.12502
lthumb -6.93572 23.6818
rfemur -36.4692 -61.2044 -41.7738
rtibia 143.554
rfoot -28.6025 55.2179
rtoes -1.04992
lfemur -65.2638 42.2325 -12.1426
ltibia 142.562
lfoot -36.9334 -30.9366
ltoes 2.91437
142
root 0.357034 8.72864 -3.07192 154.202 -12.1851 -182.51
lowerback 81.1308 -10.974 23.651
upperback 10.1976 -4.03407 0.729566
thorax -6.79804 -6.16797 -5.1382
lowerneck 7.84972 -8.33026 -5.26845
upperneck 10.7716 -12.548 1.05599
head 2.54782 -6.66324 1.18036
rclavicle 1.27222e-014 4.13472e-014
rhumerus 12.4151 -16.7033 -66.7594
rradius 13.4027
rwrist 37.4486
rhand -37.6429 12.4026
rfingers 7.12502
rthumb -10.6948 -17.3052
lclavicle 1.27222e-014 4.13472e-014
lhumerus -35.0883 -18.4095 96.3419
lradius 114.112
lwrist -7.99591
lhand -33.8734 -6.11056
lfingers 7.12502
lthumb -7.05737 23.7518
rfemur -36.5068 -61.1148 -41.672
rtibia 143.513
rfoot -28.4979 55.0592
rtoes -1.11093
lfemur -65.3548 41.8408 -12.4434
ltibia 142.53
lfoot -36.7621 -30.6123
ltoes 2.93119
143
root 0.352924 8.74282 -3.08326 154.258 -12.2351 -182.498
lowerback 81.3268 -11.0936 23.672
upperback 10.0857 -4.05061 0.658386
thorax -6.90441 -6.16713 -5.19788
lowerneck 8.05446 -8.3418 -5.23997
upperneck 10.6803 -12.5741 1.13665
head 2.4875 -6.67324 1.21435
rclavicle -5.725e-014 -5.24792e-014
rhumerus 12.3053 -16.8708 -66.8078
rradius 13.3718
rwrist 37.9973
rhand -37.8156 12.1897
rfingers 7.12502
rthumb -10.8614 -17.5094
lclavicle -5.725e-014 -5.24792e-014
lhumerus -35.1648 -18.4922 96.4397
lradius 114.218
lwrist -7.98352
lhand -34.0328 -6.12704
lfingers 7.12502
lthumb -7.21119 23.7301
rfemur -36.6432 -60.971 -41.3894
rtibia 143.436
rfoot -28.3539 54.8435
rtoes -1.23733
lfemur -65.4526 41.3659 -12.761
ltibia 142.452
lfoot -36.5549 -30.2671
ltoes 2.96034
144
root 0.349566 8.76078 -3.09403 154.352 -12.3064 -182.5
lowerback 81.4566 -11.1926 23.6777
upperback 9.98764 -4.0668 0.598254
thorax -7.00594 -6.16253 -5.24507
lowerneck 8.31124 -8.34323 -5.28759
upperneck 10.5533 -12.5959 1.26681
head 2.41577 -6.68322 1.2799
rclavicle 1.145e-013 3.33958e-014
rhumerus 12.1563 -16.7985 -66.7422
rradius 13.3759
rwrist 38.1907
rhand -37.803 11.8281
rfingers 7.12502
rthumb -10.8493 -17.8716
lclavicle 1.145e-013 3.33958e-014
lhumerus -35.213 -18.6119 96.5603
lradius 114.267
lwrist -7.91993
lhand -34.1931 -6.12915
lfingers 7.12502
lthumb -7.36596 23.7226
rfemur -36.8598 -60.8169 -41.0111
rtibia 143.319
rfoot -28.1154 54.6604
rtoes -1.30571
lfemur -65.575 40.807 -13.1728
ltibia 142.332
lfoot -36.3714 -29.8576
ltoes 2.89494
